<?xml version="1.0" encoding="utf-8"?>
<!-- Generator: Adobe Illustrator 24.0.1, SVG Export Plug-In . SVG Version: 6.00 Build 0)  -->
<svg version="1.1" id="Layer_1" xmlns="http://www.w3.org/2000/svg" xmlns:xlink="http://www.w3.org/1999/xlink" x="0px" y="0px"
	 viewBox="0 0 1162.2 936.4" style="enable-background:new 0 0 1162.2 936.4;" xml:space="preserve">
<style type="text/css">
	.st0{fill:#010202;}
</style>
<g>
	<path class="st0" d="M1128.8,934.9h-97.5c-6.4,0-12.5-1.2-18.4-3.7c-5.9-2.4-11.1-5.9-15.6-10.4c-8.5-8.5-19.8-13.2-31.9-13.2
		H196.7c-12,0-23.3,4.7-31.9,13.2c-4.5,4.5-9.7,8-15.6,10.4c-5.9,2.4-12,3.7-18.4,3.7H33.4c-17.8,0-32.3-14.5-32.3-32.3V46.2
		c0-24.6,20-44.7,44.7-44.7h313c5.5,0,9.9,4.5,9.9,9.9v9.7c0,3.8,3.1,6.9,6.9,6.9h411c3.8,0,6.9-3.1,6.9-6.9v-9.7
		c0-5.5,4.5-9.9,9.9-9.9h313c24.6,0,44.7,20,44.7,44.7v856.4C1161.1,920.4,1146.6,934.9,1128.8,934.9z M196.7,904.6h768.8
		c12.8,0,24.9,5,34,14.1c4.2,4.2,9.1,7.5,14.6,9.8c5.5,2.3,11.3,3.4,17.2,3.4h97.5c16.2,0,29.3-13.1,29.3-29.3V46.2
		c0-23-18.7-41.7-41.7-41.7h-313c-3.8,0-6.9,3.1-6.9,6.9v9.7c0,5.5-4.5,9.9-9.9,9.9h-411c-5.5,0-9.9-4.5-9.9-9.9v-9.7
		c0-3.8-3.1-6.9-6.9-6.9h-313c-23,0-41.7,18.7-41.7,41.7v856.4c0,16.2,13.1,29.3,29.3,29.3h97.5c5.9,0,11.7-1.2,17.2-3.4
		c5.5-2.3,10.4-5.6,14.6-9.8C171.8,909.6,183.9,904.6,196.7,904.6z"/>
	<path class="st0" d="M1145.3,893.2H16.9c-0.8,0-1.5-0.7-1.5-1.5V44.5c0-0.8,0.7-1.5,1.5-1.5h1128.4c0.8,0,1.5,0.7,1.5,1.5v847.2
		C1146.8,892.5,1146.1,893.2,1145.3,893.2z M18.4,890.2h1125.4V46H18.4V890.2z"/>
	<path class="st0" d="M1053,925.2h-19.6v-3.4l10.5-16l-9.3,0v-5.4h18.2v3.4l-10.4,15.9l10.5,0V925.2z M1034.4,924.2h17.6v-3.5h-9.7
		l-2.3,0.3l1.6-1.8l10.3-15.7v-2.1h-16.2v3.4h8.5l2.2-0.3l-1.6,1.8l-10.4,15.8V924.2z"/>
	<path class="st0" d="M1061.8,925.8c-1.2,0-2.2-0.2-3.2-0.6c-0.9-0.4-1.7-1-2.4-1.6c-0.7-0.7-1.2-1.5-1.5-2.4
		c-0.3-0.9-0.5-1.8-0.5-2.8c0-1,0.2-2,0.6-3c0.4-1,1.2-1.8,2.2-2.6c1-0.7,2.4-1.4,4-1.9c1.6-0.5,3.7-0.9,6.2-1.1l0.6,0l-0.1,0.6
		c-0.2,1.1-0.5,2.1-1,3c-0.5,0.9-1.4,1.5-2.5,1.7c-1.1,0.2-1.8,0.5-2.2,1c-0.4,0.5-0.7,1-0.7,1.7c0,0.7,0.2,1.2,0.7,1.6
		c1,1,2.6,0.9,4.1-0.1c0.8-0.5,1.6-1.2,2.3-2.1v-6.8c0-1.5-0.4-2.6-1.2-3.5c-0.8-0.9-1.9-1.3-3.4-1.3c-0.7,0-1.5,0.1-2.4,0.2
		c-0.8,0.1-1.8,0.4-2.8,0.8l-0.5,0.2l-1.9-4.9l0.4-0.2c1.4-0.6,2.9-1.1,4.3-1.4c1.5-0.3,2.8-0.4,3.9-0.4c3.4,0,6,0.9,7.9,2.7
		c1.8,1.8,2.8,4.4,2.8,7.8v8.5c0,0.8,0.1,1.7,0.2,2.7c0.1,0.9,0.3,1.9,0.6,3l0.2,0.6h-5.5l-0.1-0.1c-0.5-0.3-0.9-0.7-1.2-1.2
		c-0.3-0.4-0.5-0.8-0.7-1.3c-1.4,1.3-2.6,2.1-3.7,2.5C1064.1,925.6,1063,925.8,1061.8,925.8z M1066.6,910.9c-2.1,0.2-3.9,0.5-5.3,1
		c-1.6,0.5-2.8,1.1-3.7,1.8c-0.9,0.7-1.5,1.4-1.9,2.2c-0.4,0.8-0.6,1.7-0.6,2.5c0,0.9,0.2,1.7,0.4,2.4c0.3,0.8,0.7,1.4,1.3,2
		c0.6,0.6,1.3,1.1,2.1,1.4c1.7,0.7,4,0.7,5.9,0c1-0.4,2.1-1.1,3.4-2.3l1.2-1.8l0.3,2.1c0.2,0.4,0.4,0.8,0.6,1.2
		c0.2,0.3,0.4,0.6,0.7,0.7h3.9c-0.2-0.9-0.3-1.7-0.4-2.5c-0.1-1-0.2-1.9-0.2-2.8v-8.5c0-3.1-0.8-5.5-2.5-7.1
		c-1.6-1.6-4.1-2.4-7.2-2.4c-1,0-2.3,0.1-3.7,0.4c-1.2,0.2-2.5,0.6-3.7,1.1l1.2,3.1c0.9-0.3,1.8-0.5,2.5-0.7
		c0.9-0.2,1.8-0.2,2.5-0.2c1.8,0,3.1,0.5,4.1,1.6c1,1,1.4,2.4,1.4,4.2v7.1l-0.1,0.1c-0.8,1-1.7,1.8-2.6,2.4c-1.9,1.3-4,1.3-5.3,0
		c-0.7-0.6-1-1.4-1-2.4c0-0.9,0.3-1.7,0.9-2.4c0.6-0.7,1.5-1.1,2.8-1.3c0.8-0.2,1.4-0.6,1.8-1.2
		C1066.2,912.3,1066.4,911.7,1066.6,910.9z"/>
	<path class="st0" d="M1100.1,925.2h-7.9l-4.2-6.8l-3.7,6.8h-8.2l8.2-12.5l-8.7-12.3h8.4l0.1,0.2c1.2,1.9,2.4,3.8,3.6,5.7
		c1.2,1.9,2.5,3.8,3.8,5.7L1100.1,925.2z M1092.8,924.2h5.5l-7.5-11.5c-1.3-1.9-2.5-3.8-3.8-5.7c-1.2-1.8-2.3-3.7-3.5-5.5h-5.9
		l7.9,11.2l-7.5,11.5h5.8l4.2-7.8L1092.8,924.2z"/>
	<path class="st0" d="M1111.8,925.9c-2.2,0-4.1-0.4-5.7-1.2c-1.6-0.8-2.9-1.8-3.9-3.1c-1-1.3-1.8-2.7-2.3-4.3
		c-0.5-1.6-0.7-3.2-0.7-4.8c0-2,0.3-3.7,1-5.3c0.7-1.6,1.6-2.9,2.7-4c1.1-1.1,2.5-1.9,4-2.5c1.5-0.6,3.2-0.9,4.9-0.9
		c1.7,0,3.4,0.4,4.8,1.1c1.5,0.7,2.7,1.7,3.6,3c0.9,1.3,1.5,2.8,1.7,4.5c0.2,1.7,0,3.6-0.7,5.7l-0.1,0.3h-13.9l0.2-0.6
		c0.4-1.1,0.9-2.1,1.5-2.9c0.7-0.8,1.6-1.3,2.5-1.3h3.6c0-0.5,0-1-0.1-1.4c-0.1-0.6-0.4-1.1-0.7-1.5c-0.3-0.4-0.7-0.8-1.2-1
		c-0.9-0.5-2.2-0.5-3.3,0c-0.6,0.2-1.1,0.6-1.5,1.2c-0.5,0.5-0.9,1.3-1.2,2.1c-0.3,0.9-0.5,2-0.5,3.2c0,2.5,0.6,4.5,1.7,5.9
		c1.1,1.3,2.5,2,4.3,2c1,0,2-0.1,3-0.4c1-0.3,2.2-0.7,3.5-1.3l0.5-0.2l2,5.2l-0.4,0.2c-1.7,0.8-3.3,1.4-4.8,1.7
		C1114.8,925.7,1113.3,925.9,1111.8,925.9z M1111.7,901c-1.6,0-3.1,0.3-4.5,0.8c-1.4,0.5-2.6,1.3-3.7,2.3c-1,1-1.9,2.2-2.5,3.6
		c-0.6,1.4-0.9,3.1-0.9,4.9c0,1.5,0.2,3,0.7,4.5c0.5,1.5,1.2,2.8,2.1,3.9c0.9,1.1,2.2,2.1,3.6,2.8c1.4,0.7,3.2,1.1,5.2,1.1
		c1.4,0,2.8-0.2,4.2-0.5c1.3-0.3,2.7-0.8,4.1-1.4l-1.3-3.3c-1.2,0.5-2.2,0.9-3.2,1.1c-1.1,0.3-2.2,0.4-3.3,0.4
		c-2.1,0-3.8-0.8-5.1-2.4c-1.3-1.5-1.9-3.7-1.9-6.5c0-1.4,0.2-2.6,0.5-3.5c0.3-1,0.8-1.8,1.4-2.5c0.6-0.7,1.2-1.1,1.9-1.4
		c1.4-0.6,3-0.6,4.2,0c0.6,0.3,1.1,0.8,1.5,1.3c0.4,0.5,0.7,1.2,0.8,1.9c0.2,0.7,0.2,1.4,0.1,2.2l-0.1,0.4h-4.5
		c-0.6,0-1.2,0.3-1.8,0.9c-0.4,0.5-0.8,1.1-1.1,1.9h11.8c0.6-1.8,0.8-3.4,0.6-4.9c-0.2-1.6-0.7-2.9-1.5-4.1c-0.8-1.1-1.9-2-3.2-2.6
		C1114.8,901.3,1113.3,901,1111.7,901z"/>
	<g>
		<g>
			<path class="st0" d="M1092.6,901h6.9l-7.1,10.1c-0.3-0.4-0.6-0.8-0.9-1.3c-0.3-0.5-0.6-1.1-0.8-1.7c-0.2-0.6-0.3-1.3-0.3-2
				c0-0.7,0.2-1.3,0.5-2L1092.6,901z"/>
			<path class="st0" d="M1092.5,911.9l-0.4-0.5c-0.3-0.4-0.6-0.8-1-1.4c-0.3-0.6-0.6-1.2-0.8-1.8c-0.2-0.7-0.3-1.4-0.3-2.1
				c0-0.7,0.2-1.5,0.5-2.2l1.9-3.4h8.2L1092.5,911.9z M1092.9,901.5l-1.6,2.9c-0.3,0.5-0.4,1.1-0.4,1.7c0,0.6,0.1,1.2,0.3,1.8
				c0.2,0.6,0.4,1.1,0.7,1.6c0.2,0.3,0.3,0.5,0.5,0.7l6.1-8.8H1092.9z"/>
		</g>
	</g>
	<g>
		<g>
			<path class="st0" d="M16.9,892.2c-0.3,0-0.5-0.2-0.5-0.5V44.5c0-0.3,0.2-0.5,0.5-0.5s0.5,0.2,0.5,0.5v847.2
				C17.4,892,17.2,892.2,16.9,892.2z"/>
			<path class="st0" d="M73.3,892.2c-0.3,0-0.5-0.2-0.5-0.5V44.5c0-0.3,0.2-0.5,0.5-0.5s0.5,0.2,0.5,0.5v847.2
				C73.8,892,73.6,892.2,73.3,892.2z"/>
			<path class="st0" d="M129.7,892.2c-0.3,0-0.5-0.2-0.5-0.5V44.5c0-0.3,0.2-0.5,0.5-0.5s0.5,0.2,0.5,0.5v847.2
				C130.2,892,130,892.2,129.7,892.2z"/>
			<path class="st0" d="M186.2,892.2c-0.3,0-0.5-0.2-0.5-0.5V44.5c0-0.3,0.2-0.5,0.5-0.5s0.5,0.2,0.5,0.5v847.2
				C186.7,892,186.4,892.2,186.2,892.2z"/>
			<path class="st0" d="M242.6,892.2c-0.3,0-0.5-0.2-0.5-0.5V44.5c0-0.3,0.2-0.5,0.5-0.5s0.5,0.2,0.5,0.5v847.2
				C243.1,892,242.9,892.2,242.6,892.2z"/>
			<path class="st0" d="M299,892.2c-0.3,0-0.5-0.2-0.5-0.5V44.5c0-0.3,0.2-0.5,0.5-0.5s0.5,0.2,0.5,0.5v847.2
				C299.5,892,299.3,892.2,299,892.2z"/>
			<path class="st0" d="M355.4,892.2c-0.3,0-0.5-0.2-0.5-0.5V44.5c0-0.3,0.2-0.5,0.5-0.5s0.5,0.2,0.5,0.5v847.2
				C355.9,892,355.7,892.2,355.4,892.2z"/>
			<path class="st0" d="M411.8,892.2c-0.3,0-0.5-0.2-0.5-0.5V44.5c0-0.3,0.2-0.5,0.5-0.5s0.5,0.2,0.5,0.5v847.2
				C412.3,892,412.1,892.2,411.8,892.2z"/>
			<path class="st0" d="M468.3,892.2c-0.3,0-0.5-0.2-0.5-0.5V44.5c0-0.3,0.2-0.5,0.5-0.5s0.5,0.2,0.5,0.5v847.2
				C468.8,892,468.5,892.2,468.3,892.2z"/>
			<path class="st0" d="M524.7,892.2c-0.3,0-0.5-0.2-0.5-0.5V44.5c0-0.3,0.2-0.5,0.5-0.5s0.5,0.2,0.5,0.5v847.2
				C525.2,892,525,892.2,524.7,892.2z"/>
			<path class="st0" d="M581.1,892.2c-0.3,0-0.5-0.2-0.5-0.5V44.5c0-0.3,0.2-0.5,0.5-0.5s0.5,0.2,0.5,0.5v847.2
				C581.6,892,581.4,892.2,581.1,892.2z"/>
			<path class="st0" d="M637.5,892.2c-0.3,0-0.5-0.2-0.5-0.5V44.5c0-0.3,0.2-0.5,0.5-0.5s0.5,0.2,0.5,0.5v847.2
				C638,892,637.8,892.2,637.5,892.2z"/>
			<path class="st0" d="M693.9,892.2c-0.3,0-0.5-0.2-0.5-0.5V44.5c0-0.3,0.2-0.5,0.5-0.5s0.5,0.2,0.5,0.5v847.2
				C694.4,892,694.2,892.2,693.9,892.2z"/>
			<path class="st0" d="M750.4,892.2c-0.3,0-0.5-0.2-0.5-0.5V44.5c0-0.3,0.2-0.5,0.5-0.5s0.5,0.2,0.5,0.5v847.2
				C750.9,892,750.6,892.2,750.4,892.2z"/>
			<path class="st0" d="M806.8,892.2c-0.3,0-0.5-0.2-0.5-0.5V44.5c0-0.3,0.2-0.5,0.5-0.5s0.5,0.2,0.5,0.5v847.2
				C807.3,892,807.1,892.2,806.8,892.2z"/>
			<path class="st0" d="M863.2,892.2c-0.3,0-0.5-0.2-0.5-0.5V44.5c0-0.3,0.2-0.5,0.5-0.5s0.5,0.2,0.5,0.5v847.2
				C863.7,892,863.5,892.2,863.2,892.2z"/>
			<path class="st0" d="M919.6,892.2c-0.3,0-0.5-0.2-0.5-0.5V44.5c0-0.3,0.2-0.5,0.5-0.5s0.5,0.2,0.5,0.5v847.2
				C920.1,892,919.9,892.2,919.6,892.2z"/>
			<path class="st0" d="M976,892.2c-0.3,0-0.5-0.2-0.5-0.5V44.5c0-0.3,0.2-0.5,0.5-0.5s0.5,0.2,0.5,0.5v847.2
				C976.5,892,976.3,892.2,976,892.2z"/>
			<path class="st0" d="M1032.5,892.2c-0.3,0-0.5-0.2-0.5-0.5V44.5c0-0.3,0.2-0.5,0.5-0.5s0.5,0.2,0.5,0.5v847.2
				C1033,892,1032.7,892.2,1032.5,892.2z"/>
			<path class="st0" d="M1088.9,892.2c-0.3,0-0.5-0.2-0.5-0.5V44.5c0-0.3,0.2-0.5,0.5-0.5s0.5,0.2,0.5,0.5v847.2
				C1089.4,892,1089.2,892.2,1088.9,892.2z"/>
			<path class="st0" d="M1145.3,892.2c-0.3,0-0.5-0.2-0.5-0.5V44.5c0-0.3,0.2-0.5,0.5-0.5s0.5,0.2,0.5,0.5v847.2
				C1145.8,892,1145.6,892.2,1145.3,892.2z"/>
		</g>
		<g>
			<path class="st0" d="M1145.3,45H16.9c-0.3,0-0.5-0.2-0.5-0.5s0.2-0.5,0.5-0.5h1128.4c0.3,0,0.5,0.2,0.5,0.5S1145.6,45,1145.3,45z
				"/>
			<path class="st0" d="M1145.3,101.5H16.9c-0.3,0-0.5-0.2-0.5-0.5s0.2-0.5,0.5-0.5h1128.4c0.3,0,0.5,0.2,0.5,0.5
				S1145.6,101.5,1145.3,101.5z"/>
			<path class="st0" d="M1145.3,158H16.9c-0.3,0-0.5-0.2-0.5-0.5s0.2-0.5,0.5-0.5h1128.4c0.3,0,0.5,0.2,0.5,0.5
				S1145.6,158,1145.3,158z"/>
			<path class="st0" d="M1145.3,214.5H16.9c-0.3,0-0.5-0.2-0.5-0.5s0.2-0.5,0.5-0.5h1128.4c0.3,0,0.5,0.2,0.5,0.5
				S1145.6,214.5,1145.3,214.5z"/>
			<path class="st0" d="M1145.3,270.9H16.9c-0.3,0-0.5-0.2-0.5-0.5s0.2-0.5,0.5-0.5h1128.4c0.3,0,0.5,0.2,0.5,0.5
				S1145.6,270.9,1145.3,270.9z"/>
			<path class="st0" d="M1145.3,327.4H16.9c-0.3,0-0.5-0.2-0.5-0.5s0.2-0.5,0.5-0.5h1128.4c0.3,0,0.5,0.2,0.5,0.5
				S1145.6,327.4,1145.3,327.4z"/>
			<path class="st0" d="M1145.3,383.9H16.9c-0.3,0-0.5-0.2-0.5-0.5s0.2-0.5,0.5-0.5h1128.4c0.3,0,0.5,0.2,0.5,0.5
				S1145.6,383.9,1145.3,383.9z"/>
			<path class="st0" d="M1145.3,440.4H16.9c-0.3,0-0.5-0.2-0.5-0.5s0.2-0.5,0.5-0.5h1128.4c0.3,0,0.5,0.2,0.5,0.5
				S1145.6,440.4,1145.3,440.4z"/>
			<path class="st0" d="M1145.3,496.8H16.9c-0.3,0-0.5-0.2-0.5-0.5s0.2-0.5,0.5-0.5h1128.4c0.3,0,0.5,0.2,0.5,0.5
				S1145.6,496.8,1145.3,496.8z"/>
			<path class="st0" d="M1145.3,553.3H16.9c-0.3,0-0.5-0.2-0.5-0.5s0.2-0.5,0.5-0.5h1128.4c0.3,0,0.5,0.2,0.5,0.5
				S1145.6,553.3,1145.3,553.3z"/>
			<path class="st0" d="M1145.3,609.8H16.9c-0.3,0-0.5-0.2-0.5-0.5s0.2-0.5,0.5-0.5h1128.4c0.3,0,0.5,0.2,0.5,0.5
				S1145.6,609.8,1145.3,609.8z"/>
			<path class="st0" d="M1145.3,666.3H16.9c-0.3,0-0.5-0.2-0.5-0.5s0.2-0.5,0.5-0.5h1128.4c0.3,0,0.5,0.2,0.5,0.5
				S1145.6,666.3,1145.3,666.3z"/>
			<path class="st0" d="M1145.3,722.7H16.9c-0.3,0-0.5-0.2-0.5-0.5s0.2-0.5,0.5-0.5h1128.4c0.3,0,0.5,0.2,0.5,0.5
				S1145.6,722.7,1145.3,722.7z"/>
			<path class="st0" d="M1145.3,779.2H16.9c-0.3,0-0.5-0.2-0.5-0.5s0.2-0.5,0.5-0.5h1128.4c0.3,0,0.5,0.2,0.5,0.5
				S1145.6,779.2,1145.3,779.2z"/>
			<path class="st0" d="M1145.3,835.7H16.9c-0.3,0-0.5-0.2-0.5-0.5s0.2-0.5,0.5-0.5h1128.4c0.3,0,0.5,0.2,0.5,0.5
				S1145.6,835.7,1145.3,835.7z"/>
			<path class="st0" d="M1145.3,892.2H16.9c-0.3,0-0.5-0.2-0.5-0.5s0.2-0.5,0.5-0.5h1128.4c0.3,0,0.5,0.2,0.5,0.5
				S1145.6,892.2,1145.3,892.2z"/>
		</g>
	</g>
</g>
</svg>
